<svg xmlns="http://www.w3.org/2000/svg" width="20" height="20" viewBox="0 0 20 20"><path fill="#000" fill-rule="evenodd" d="M15.732 809.137l5.815-5.815a.503.503 0 0 1 .859.341l.038 1.366c.016.552.476.971 1.028.971h-.222c.552 0 .75-.476.75-1.028V801c0-1.1-.9-2-2-2h-3.517c-.553 0-1.483.425-1.483.977v.003c0 .552.647 1.014 1.199 1.029l1.534.041a.503.503 0 0 1 .343.857l-5.787 5.816a1 1 0 0 0 .015 1.414c.39.39 1.037.391 1.428 0M24 812.011v5.004c0 1.102-.45 1.985-1.552 1.985H6.44c-1.102 0-2.44-.883-2.44-1.985v-16.008C4 799.904 5.338 799 6.44 799h5.004a1 1 0 0 1 0 2h-4c-.552 0-1.444.458-1.444 1.011v13.004C6 816.117 7.338 817 8.44 817h13.004c.552 0 .556-.437.556-.989v-4a1 1 0 1 1 2 0" transform="translate(-4 -799)"/></svg>